<svg width="53" height="60" viewBox="0 0 53 60" fill="none" xmlns="http://www.w3.org/2000/svg">
<path d="M17.2449 30C17.2449 38.2159 16.2575 45.6158 14.684 50.9293C13.8953 53.5925 12.9758 55.6748 11.9997 57.0689C11.0039 58.4912 10.0966 59 9.36079 59C8.62494 59 7.71768 58.4912 6.72187 57.0689C5.74582 55.6748 4.82629 53.5925 4.03762 50.9293C2.46412 45.6158 1.47668 38.2159 1.47668 30C1.47668 21.7841 2.46412 14.3842 4.03762 9.07074C4.82629 6.40754 5.74582 4.32516 6.72187 2.93109C7.71768 1.50881 8.62494 1 9.36079 1C10.0966 1 11.0039 1.50881 11.9997 2.93109C12.9758 4.32516 13.8953 6.40754 14.684 9.07074C16.2575 14.3842 17.2449 21.7841 17.2449 30Z" stroke="black" stroke-width="2"/>
<path d="M40.3435 30C40.3435 38.2159 39.3561 45.6158 37.7826 50.9293C36.9939 53.5925 36.0744 55.6748 35.0983 57.0689C34.1025 58.4912 33.1953 59 32.4594 59C31.7236 59 30.8163 58.4912 29.8205 57.0689C28.8444 55.6748 27.9249 53.5925 27.1363 50.9293C25.5627 45.6158 24.5753 38.2159 24.5753 30C24.5753 21.7841 25.5627 14.3842 27.1363 9.07074C27.9249 6.40754 28.8444 4.32516 29.8205 2.93109C30.8163 1.50881 31.7236 1 32.4594 1C33.1953 1 34.1025 1.50881 35.0983 2.93109C36.0744 4.32516 36.9939 6.40754 37.7826 9.07074C39.3561 14.3842 40.3435 21.7841 40.3435 30Z" stroke="black" stroke-width="2"/>
<path d="M28.7942 30C28.7942 38.2159 27.8068 45.6158 26.2333 50.9293C25.4446 53.5925 24.5251 55.6748 23.549 57.0689C22.5532 58.4912 21.646 59 20.9101 59C20.1743 59 19.267 58.4912 18.2712 57.0689C17.2951 55.6748 16.3756 53.5925 15.5869 50.9293C14.0134 45.6158 13.026 38.2159 13.026 30C13.026 21.7841 14.0134 14.3842 15.5869 9.07074C16.3756 6.40754 17.2951 4.32516 18.2712 2.93109C19.267 1.50881 20.1743 1 20.9101 1C21.646 1 22.5532 1.50881 23.549 2.93109C24.5251 4.32516 25.4446 6.40754 26.2333 9.07074C27.8068 14.3842 28.7942 21.7841 28.7942 30Z" stroke="black" stroke-width="2"/>
<path d="M51.893 30C51.893 38.2159 50.9055 45.6158 49.332 50.9293C48.5434 53.5925 47.6238 55.6748 46.6478 57.0689C45.652 58.4912 44.7447 59 44.0089 59C43.273 59 42.3657 58.4912 41.3699 57.0689C40.3939 55.6748 39.4744 53.5925 38.6857 50.9293C37.1122 45.6158 36.1248 38.2159 36.1248 30C36.1248 21.7841 37.1122 14.3842 38.6857 9.07074C39.4744 6.40754 40.3939 4.32516 41.3699 2.93109C42.3657 1.50881 43.273 1 44.0089 1C44.7447 1 45.652 1.50881 46.6478 2.93109C47.6238 4.32516 48.5434 6.40754 49.332 9.07074C50.9055 14.3842 51.893 21.7841 51.893 30Z" stroke="black" stroke-width="2"/>
</svg>
